<mxfile host="app.diagrams.net" modified="2024-03-27T08:48:18.445Z" agent="Mozilla/5.0 (Windows NT 10.0; Win64; x64) AppleWebKit/537.36 (KHTML, like Gecko) Chrome/123.0.0.0 Safari/537.36" etag="j3XGvuELC8sOXdT61ZCS" version="24.1.0" type="github">
  <diagram name="Page-1" id="jJjRJWm9oL9bmskKg3DY">
    <mxGraphModel dx="794" dy="446" grid="1" gridSize="10" guides="1" tooltips="1" connect="1" arrows="1" fold="1" page="1" pageScale="1" pageWidth="850" pageHeight="1100" math="0" shadow="0">
      <root>
        <mxCell id="0" />
        <mxCell id="1" parent="0" />
        <mxCell id="AeyiEeCCYzldVBtpaugz-1" value="Phần mềm tính lương cho từng người khác nhau" style="rounded=1;whiteSpace=wrap;html=1;absoluteArcSize=1;arcSize=14;strokeWidth=2;" vertex="1" parent="1">
          <mxGeometry x="190" y="300" width="100" height="60" as="geometry" />
        </mxCell>
        <mxCell id="AeyiEeCCYzldVBtpaugz-2" value="Tạo ra bảng lương" style="rounded=1;whiteSpace=wrap;html=1;absoluteArcSize=1;arcSize=14;strokeWidth=2;" vertex="1" parent="1">
          <mxGeometry x="190" y="390" width="100" height="50" as="geometry" />
        </mxCell>
        <mxCell id="AeyiEeCCYzldVBtpaugz-3" value="" style="endArrow=classic;html=1;rounded=0;exitX=0.5;exitY=1;exitDx=0;exitDy=0;" edge="1" parent="1" source="AeyiEeCCYzldVBtpaugz-1" target="AeyiEeCCYzldVBtpaugz-2">
          <mxGeometry width="50" height="50" relative="1" as="geometry">
            <mxPoint x="390" y="390" as="sourcePoint" />
            <mxPoint x="440" y="340" as="targetPoint" />
          </mxGeometry>
        </mxCell>
        <mxCell id="AeyiEeCCYzldVBtpaugz-4" value="Ban Giám hiệu ký duyệt" style="rounded=1;whiteSpace=wrap;html=1;absoluteArcSize=1;arcSize=14;strokeWidth=2;" vertex="1" parent="1">
          <mxGeometry x="540" y="395" width="100" height="40" as="geometry" />
        </mxCell>
        <mxCell id="AeyiEeCCYzldVBtpaugz-5" value="Kế toán trưởng và kế toán lương ký duyệt" style="rounded=1;whiteSpace=wrap;html=1;absoluteArcSize=1;arcSize=14;strokeWidth=2;" vertex="1" parent="1">
          <mxGeometry x="360" y="390" width="100" height="50" as="geometry" />
        </mxCell>
        <mxCell id="AeyiEeCCYzldVBtpaugz-6" value="" style="endArrow=classic;html=1;rounded=0;exitX=1;exitY=0.5;exitDx=0;exitDy=0;" edge="1" parent="1" source="AeyiEeCCYzldVBtpaugz-2" target="AeyiEeCCYzldVBtpaugz-5">
          <mxGeometry width="50" height="50" relative="1" as="geometry">
            <mxPoint x="390" y="390" as="sourcePoint" />
            <mxPoint x="440" y="340" as="targetPoint" />
          </mxGeometry>
        </mxCell>
        <mxCell id="AeyiEeCCYzldVBtpaugz-7" value="" style="endArrow=classic;html=1;rounded=0;exitX=1;exitY=0.5;exitDx=0;exitDy=0;entryX=0;entryY=0.5;entryDx=0;entryDy=0;" edge="1" parent="1" source="AeyiEeCCYzldVBtpaugz-5" target="AeyiEeCCYzldVBtpaugz-4">
          <mxGeometry width="50" height="50" relative="1" as="geometry">
            <mxPoint x="390" y="390" as="sourcePoint" />
            <mxPoint x="440" y="340" as="targetPoint" />
          </mxGeometry>
        </mxCell>
        <mxCell id="AeyiEeCCYzldVBtpaugz-8" value="Chi tiền trả lương cho cán bộ" style="rounded=1;whiteSpace=wrap;html=1;absoluteArcSize=1;arcSize=14;strokeWidth=2;" vertex="1" parent="1">
          <mxGeometry x="360" y="500" width="100" height="50" as="geometry" />
        </mxCell>
        <mxCell id="AeyiEeCCYzldVBtpaugz-9" value="" style="endArrow=classic;html=1;rounded=0;exitX=0;exitY=1;exitDx=0;exitDy=0;entryX=1;entryY=0;entryDx=0;entryDy=0;" edge="1" parent="1" source="AeyiEeCCYzldVBtpaugz-4" target="AeyiEeCCYzldVBtpaugz-8">
          <mxGeometry width="50" height="50" relative="1" as="geometry">
            <mxPoint x="390" y="420" as="sourcePoint" />
            <mxPoint x="440" y="370" as="targetPoint" />
          </mxGeometry>
        </mxCell>
        <mxCell id="AeyiEeCCYzldVBtpaugz-10" value="Phần mềm tính lương" style="text;html=1;align=center;verticalAlign=middle;resizable=0;points=[];autosize=1;strokeColor=none;fillColor=none;" vertex="1" parent="1">
          <mxGeometry x="170" y="220" width="140" height="30" as="geometry" />
        </mxCell>
        <mxCell id="AeyiEeCCYzldVBtpaugz-11" value="Phòng Kế hoạch Tài chính" style="text;html=1;align=center;verticalAlign=middle;resizable=0;points=[];autosize=1;strokeColor=none;fillColor=none;" vertex="1" parent="1">
          <mxGeometry x="330" y="220" width="160" height="30" as="geometry" />
        </mxCell>
        <mxCell id="AeyiEeCCYzldVBtpaugz-12" value="Ban Giám hiệu" style="text;html=1;align=center;verticalAlign=middle;resizable=0;points=[];autosize=1;strokeColor=none;fillColor=none;" vertex="1" parent="1">
          <mxGeometry x="540" y="220" width="100" height="30" as="geometry" />
        </mxCell>
      </root>
    </mxGraphModel>
  </diagram>
</mxfile>
